<svg xmlns="http://www.w3.org/2000/svg" viewBox="0 0 108.36 108.36"><defs><style>.cls-1{fill:#be75ff;}.cls-2{fill:#feb9eb;}.cls-3{fill:#a061ff;}.cls-4{fill:#9f48ff;}.cls-5{fill:#d783eb;}.cls-6{fill:#8b38d6;}.cls-7{fill:#8536cd;}.cls-8{fill:#fff;}</style></defs><title>Asset 1mdpi</title><g id="Layer_2" data-name="Layer 2"><g id="objects"><path class="cls-1" d="M107.41,51.88a3.26,3.26,0,0,1,0,4.61L56.49,107.41a3.26,3.26,0,0,1-4.61,0L1,56.49a3.26,3.26,0,0,1,0-4.61L51.88,1a3.26,3.26,0,0,1,4.61,0Z"/><path class="cls-2" d="M86.23,30.69,28.67,72.3l-3.3-4.57L82.19,26.65Zm-9.46-9.46-10.5-10.5L18,45.65l8.59,11.88Z"/><path class="cls-3" d="M28.75,84.28l23.13,23.13a3.26,3.26,0,0,0,4.61,0L89.17,74.72l7.7-20.54H14.24Z"/><path class="cls-4" d="M52.47.5a3.16,3.16,0,0,0-.58.46L1,51.88a3.24,3.24,0,0,0-1,2.3H35.11Z"/><path class="cls-5" d="M73.25,54.18h35.12a3.25,3.25,0,0,0-1-2.3L56.49,1A3.3,3.3,0,0,0,55.9.5Z"/><path class="cls-6" d="M51.88,107.41a3.15,3.15,0,0,0,.59.46L35.11,54.18H0a3.25,3.25,0,0,0,1,2.3Z"/><path class="cls-7" d="M73.25,54.18,55.9,107.87a3.23,3.23,0,0,0,.59-.46l50.92-50.92a3.25,3.25,0,0,0,1-2.3Z"/><path class="cls-8" d="M35.11,26.1c-5.05,1.64-6.38,3-8,8-1.64-5-3-6.38-8-8,5.05-1.64,6.38-3,8-8C28.73,23.14,30.06,24.46,35.11,26.1Z"/><path class="cls-8" d="M44.42,37.95c-2.74.89-3.46,1.61-4.35,4.35-.89-2.74-1.61-3.46-4.35-4.35,2.74-.89,3.46-1.61,4.35-4.35C41,36.34,41.68,37.06,44.42,37.95Z"/></g></g></svg>